<svg width="58" height="58" viewBox="0 0 58 58" fill="none" xmlns="http://www.w3.org/2000/svg">
<path d="M28.75 0C12.9087 0 0 12.9087 0 28.75C0 44.5912 12.9087 57.5 28.75 57.5C44.5912 57.5 57.5 44.5912 57.5 28.75C57.5 12.9087 44.5912 0 28.75 0ZM38.41 35.3625C39.2437 36.1962 39.2437 37.5762 38.41 38.41C37.9787 38.8412 37.4325 39.0425 36.8862 39.0425C36.34 39.0425 35.7937 38.8412 35.3625 38.41L28.75 31.7975L22.1375 38.41C21.7062 38.8412 21.16 39.0425 20.6137 39.0425C20.0675 39.0425 19.5212 38.8412 19.09 38.41C18.2562 37.5762 18.2562 36.1962 19.09 35.3625L25.7025 28.75L19.09 22.1375C18.2562 21.3037 18.2562 19.9237 19.09 19.09C19.9237 18.2562 21.3037 18.2562 22.1375 19.09L28.75 25.7025L35.3625 19.09C36.1962 18.2562 37.5762 18.2562 38.41 19.09C39.2437 19.9237 39.2437 21.3037 38.41 22.1375L31.7975 28.75L38.41 35.3625Z" fill="white"/>
</svg>
