<svg width="21" height="21" viewBox="0 0 21 21" fill="none" xmlns="http://www.w3.org/2000/svg">
<path fill-rule="evenodd" clip-rule="evenodd" d="M1.64488 1.53554C2.16623 1.01419 2.92656 0.929241 3.34311 1.3458L19.4337 17.4364C19.8503 17.853 19.7653 18.6133 19.244 19.1346C18.7226 19.656 17.9623 19.7409 17.5457 19.3244L1.45514 3.23378C1.03858 2.81722 1.12353 2.05689 1.64488 1.53554Z" fill="#1074BC"/>
<path fill-rule="evenodd" clip-rule="evenodd" d="M1.64492 19.1347C1.12357 18.6133 1.03862 17.853 1.45517 17.4364L17.5458 1.34582C17.9623 0.929256 18.7227 1.01421 19.244 1.53556C19.7654 2.05691 19.8503 2.81723 19.4338 3.23379L3.34315 19.3244C2.92659 19.741 2.16627 19.656 1.64492 19.1347Z" fill="#1074BC"/>
</svg>
