<svg width="1920" height="399" viewBox="0 0 1920 399" fill="none" xmlns="http://www.w3.org/2000/svg">
<rect width="1920" height="399" fill="url(#paint0_linear_1033_1498)"/>
<rect opacity="0.8" width="1920" height="399" fill="white"/>
<mask id="mask0_1033_1498" style="mask-type:alpha" maskUnits="userSpaceOnUse" x="0" y="0" width="1920" height="399">
<rect opacity="0.8" width="1920" height="399" fill="white"/>
</mask>
<g mask="url(#mask0_1033_1498)">
<path d="M875.5 411.783C875.5 604.092 704.74 760.065 494 760.065C283.26 760.065 112.5 604.092 112.5 411.783C112.5 219.473 283.26 63.5 494 63.5C704.74 63.5 875.5 219.473 875.5 411.783Z" stroke="white"/>
<path d="M840.773 411.783C840.773 586.58 685.561 728.358 494 728.358C302.439 728.358 147.228 586.58 147.228 411.783C147.228 236.985 302.439 95.2075 494 95.2075C685.561 95.2075 840.773 236.985 840.773 411.783Z" stroke="white"/>
<path d="M806.045 411.783C806.045 569.069 666.381 696.65 494 696.65C321.618 696.65 181.954 569.069 181.954 411.783C181.954 254.496 321.618 126.915 494 126.915C666.381 126.915 806.045 254.496 806.045 411.783Z" stroke="white"/>
<path d="M771.318 411.783C771.318 551.557 647.202 664.943 494 664.943C340.797 664.943 216.682 551.557 216.682 411.783C216.682 272.008 340.797 158.622 494 158.622C647.202 158.622 771.318 272.008 771.318 411.783Z" stroke="white"/>
<path d="M736.591 411.783C736.591 534.046 628.023 633.235 494 633.235C359.977 633.235 251.409 534.046 251.409 411.783C251.409 289.519 359.977 190.33 494 190.33C628.023 190.33 736.591 289.519 736.591 411.783Z" stroke="white"/>
<path d="M701.864 411.783C701.864 516.534 608.844 601.528 494 601.528C379.157 601.528 286.137 516.534 286.137 411.783C286.137 307.031 379.157 222.038 494 222.038C608.844 222.038 701.864 307.031 701.864 411.783Z" stroke="white"/>
<path d="M667.136 411.783C667.136 499.023 589.664 569.82 494 569.82C398.335 569.82 320.863 499.023 320.863 411.783C320.863 324.543 398.335 253.745 494 253.745C589.664 253.745 667.136 324.543 667.136 411.783Z" stroke="white"/>
<path d="M632.409 411.783C632.409 481.511 570.485 538.113 494 538.113C417.515 538.113 355.591 481.511 355.591 411.783C355.591 342.054 417.515 285.453 494 285.453C570.485 285.453 632.409 342.054 632.409 411.783Z" stroke="white"/>
<path d="M597.682 411.783C597.682 463.999 551.306 506.405 494 506.405C436.695 506.405 390.318 463.999 390.318 411.783C390.318 359.566 436.695 317.16 494 317.16C551.306 317.16 597.682 359.566 597.682 411.783Z" stroke="white"/>
<path d="M562.955 411.783C562.955 446.488 532.127 474.698 494 474.698C455.874 474.698 425.046 446.488 425.046 411.783C425.046 377.077 455.874 348.868 494 348.868C532.127 348.868 562.955 377.077 562.955 411.783Z" stroke="white"/>
<g opacity="0.64">
<path d="M1932.5 105.913C1932.5 298.222 1761.74 454.196 1551 454.196C1340.26 454.196 1169.5 298.222 1169.5 105.913C1169.5 -86.3963 1340.26 -242.37 1551 -242.37C1761.74 -242.37 1932.5 -86.3963 1932.5 105.913Z" stroke="white"/>
<path d="M1897.77 105.913C1897.77 280.711 1742.56 422.488 1551 422.488C1359.44 422.488 1204.23 280.711 1204.23 105.913C1204.23 -68.8847 1359.44 -210.662 1551 -210.662C1742.56 -210.662 1897.77 -68.8847 1897.77 105.913Z" stroke="white"/>
<path d="M1863.04 105.913C1863.04 263.199 1723.38 390.781 1551 390.781C1378.62 390.781 1238.95 263.199 1238.95 105.913C1238.95 -51.3731 1378.62 -178.954 1551 -178.954C1723.38 -178.954 1863.04 -51.3731 1863.04 105.913Z" stroke="white"/>
<path d="M1828.32 105.913C1828.32 245.688 1704.2 359.073 1551 359.073C1397.8 359.073 1273.68 245.688 1273.68 105.913C1273.68 -33.8616 1397.8 -147.247 1551 -147.247C1704.2 -147.247 1828.32 -33.8616 1828.32 105.913Z" stroke="white"/>
<path d="M1793.59 105.913C1793.59 228.176 1685.02 327.366 1551 327.366C1416.98 327.366 1308.41 228.176 1308.41 105.913C1308.41 -16.35 1416.98 -115.54 1551 -115.54C1685.02 -115.54 1793.59 -16.35 1793.59 105.913Z" stroke="white"/>
<path d="M1758.86 105.913C1758.86 210.664 1665.84 295.658 1551 295.658C1436.16 295.658 1343.14 210.664 1343.14 105.913C1343.14 1.16156 1436.16 -83.832 1551 -83.832C1665.84 -83.832 1758.86 1.16156 1758.86 105.913Z" stroke="white"/>
<path d="M1724.14 105.913C1724.14 193.153 1646.66 263.951 1551 263.951C1455.34 263.951 1377.86 193.153 1377.86 105.913C1377.86 18.6731 1455.34 -52.1245 1551 -52.1245C1646.66 -52.1245 1724.14 18.6731 1724.14 105.913Z" stroke="white"/>
<path d="M1689.41 105.913C1689.41 175.641 1627.48 232.243 1551 232.243C1474.51 232.243 1412.59 175.641 1412.59 105.913C1412.59 36.1847 1474.51 -20.417 1551 -20.417C1627.48 -20.417 1689.41 36.1847 1689.41 105.913Z" stroke="white"/>
<path d="M1654.68 105.913C1654.68 158.13 1608.31 200.535 1551 200.535C1493.69 200.535 1447.32 158.13 1447.32 105.913C1447.32 53.6962 1493.69 11.2904 1551 11.2904C1608.31 11.2904 1654.68 53.6962 1654.68 105.913Z" stroke="white"/>
<path d="M1619.95 105.913C1619.95 140.618 1589.13 168.828 1551 168.828C1512.87 168.828 1482.05 140.618 1482.05 105.913C1482.05 71.2079 1512.87 42.998 1551 42.998C1589.13 42.998 1619.95 71.2079 1619.95 105.913Z" stroke="white"/>
</g>
</g>
<defs>
<linearGradient id="paint0_linear_1033_1498" x1="-7.76637e-06" y1="142.701" x2="1920" y2="148.027" gradientUnits="userSpaceOnUse">
<stop stop-color="#1074BC"/>
<stop offset="1" stop-color="#F15929"/>
</linearGradient>
</defs>
</svg>
