<svg width="16" height="15" viewBox="0 0 16 15" fill="none" xmlns="http://www.w3.org/2000/svg">
<g clip-path="url(#clip0_1762_318)">
<path fill-rule="evenodd" clip-rule="evenodd" d="M15.7455 5.95982C15.9538 5.86607 16.058 5.61161 15.9668 5.39732L13.884 0.254464C13.8189 0.09375 13.6627 0 13.5065 0C13.3373 0 13.1811 0.09375 13.116 0.254464L11.0332 5.39732C10.942 5.625 11.0462 5.86607 11.2545 5.95982C11.4758 6.05357 11.7101 5.94643 11.8012 5.73214L12.2178 4.71429H14.7822L15.1988 5.73214C15.2639 5.89286 15.4201 6 15.5893 6C15.6414 6 15.6935 5.98661 15.7455 5.95982ZM14.4438 3.84375H12.5562L13.5065 1.54018L14.4438 3.84375ZM11.3893 14.9062C11.8892 14.6875 12.1391 14.0938 11.9204 13.5938L6.92165 1.59375C6.76544 1.21875 6.39053 1 6.01562 1C5.60947 1 5.23456 1.21875 5.07835 1.59375L0.0795771 13.5938C-0.139119 14.125 0.11082 14.6875 0.610697 14.9062C1.14182 15.125 1.70418 14.875 1.92288 14.375L2.92263 12H9.07737L10.0771 14.375C10.2333 14.75 10.6082 15 11.0144 15C11.1394 15 11.2643 14.9688 11.3893 14.9062ZM8.26507 9.96875H3.73493L6.01562 4.59375L8.26507 9.96875Z" fill="black"/>
</g>
<defs>
<clipPath id="clip0_1762_318">
<rect width="16" height="15" fill="white"/>
</clipPath>
</defs>
</svg>
