<svg width="55" height="52" viewBox="0 0 55 52" fill="none" xmlns="http://www.w3.org/2000/svg">
<path fill-rule="evenodd" clip-rule="evenodd" d="M32.981 2.03913C29.8551 -0.679711 25.1449 -0.679711 22.019 2.03913L0.923044 20.3884C-0.212127 21.3758 -0.314372 23.0767 0.694657 24.1875C1.70369 25.2981 3.44188 25.3982 4.57702 24.4109L5.50003 23.6082V38.7224C5.49989 41.1079 5.49978 43.1632 5.72591 44.8093C5.96827 46.5732 6.51483 48.2642 7.9164 49.6355C9.31796 51.007 11.0459 51.5417 12.8486 51.7791C14.5307 52.0003 16.6311 52 19.069 52H35.9309C38.3688 52 40.4692 52.0003 42.1514 51.7791C43.954 51.5417 45.6821 51.007 47.0835 49.6355C48.4852 48.2642 49.0316 46.5732 49.2742 44.8093C49.5002 43.1632 49.5002 41.1079 49.4999 38.7226V23.6082L50.4228 24.4109C51.558 25.3982 53.2963 25.2981 54.3053 24.1875C55.3143 23.0767 55.2122 21.3758 54.077 20.3884L32.981 2.03913ZM27.5 35.8544C25.9812 35.8544 24.75 37.0591 24.75 38.5453V43.9272C24.75 45.4134 23.5188 46.6181 22 46.6181C20.4812 46.6181 19.25 45.4134 19.25 43.9272V38.5453C19.25 34.0867 22.9435 30.4725 27.5 30.4725C32.0564 30.4725 35.75 34.0867 35.75 38.5453V43.9272C35.75 45.4134 34.5188 46.6181 33 46.6181C31.4811 46.6181 30.25 45.4134 30.25 43.9272V38.5453C30.25 37.0591 29.0188 35.8544 27.5 35.8544Z" fill="#323232"/>
</svg>
